<svg width="20" height="20" viewBox="0 0 20 20" fill="none" xmlns="http://www.w3.org/2000/svg">
<path d="M20 11.875V15.625C20 16.6605 19.2538 17.5 18.3333 17.5H1.66667C0.746181 17.5 0 16.6605 0 15.625V11.875C0 10.8395 0.746181 10 1.66667 10H18.3333C19.2538 10 20 10.8395 20 11.875ZM18.3333 8.75C18.7002 8.74964 19.0635 8.8315 19.402 8.99082L16.0503 3.33492C15.8981 3.07809 15.6919 2.86751 15.45 2.72186C15.2081 2.57621 14.938 2.5 14.6636 2.5H5.33642C5.06205 2.5 4.79192 2.57621 4.55 2.72186C4.30809 2.86751 4.10189 3.07809 3.94969 3.33492L0.598021 8.99082C0.936486 8.8315 1.29977 8.74964 1.66667 8.75H18.3333ZM16.6667 12.5C16.053 12.5 15.5556 13.0596 15.5556 13.75C15.5556 14.4404 16.053 15 16.6667 15C17.2803 15 17.7778 14.4404 17.7778 13.75C17.7778 13.0596 17.2803 12.5 16.6667 12.5ZM13.3333 12.5C12.7197 12.5 12.2222 13.0596 12.2222 13.75C12.2222 14.4404 12.7197 15 13.3333 15C13.947 15 14.4444 14.4404 14.4444 13.75C14.4444 13.0596 13.947 12.5 13.3333 12.5Z" fill="#243342"/>
</svg>
