<svg width="20" height="20" viewBox="0 0 20 20" fill="none" xmlns="http://www.w3.org/2000/svg">
<path d="M3.6 8.19531H1.17969V9.44531H3.6V8.19531Z" fill="#243342"/>
<path d="M18.8203 8.19531H16.4V9.44531H18.8203V8.19531Z" fill="#243342"/>
<path d="M4.14597 2.0812L3.26208 2.96509L5.02433 4.72733L5.90821 3.84345L4.14597 2.0812Z" fill="#243342"/>
<path d="M10.625 0H9.375V2.42031H10.625V0Z" fill="#243342"/>
<path d="M15.8539 2.08248L14.0917 3.84473L14.9756 4.72861L16.7378 2.96637L15.8539 2.08248Z" fill="#243342"/>
<path d="M5.02472 12.9109L3.26248 14.6731L4.14637 15.557L5.90861 13.7947L5.02472 12.9109Z" fill="#243342"/>
<path d="M14.976 12.912L14.0921 13.7959L15.8543 15.5581L16.7382 14.6743L14.976 12.912Z" fill="#243342"/>
<path d="M7.35782 17.3578C7.35782 17.7048 7.42616 18.0484 7.55894 18.3689C7.69173 18.6895 7.88635 18.9808 8.1317 19.2261C8.37705 19.4715 8.66832 19.6661 8.98888 19.7989C9.30945 19.9317 9.65303 20 10 20C10.347 20 10.6906 19.9317 11.0111 19.7989C11.3317 19.6661 11.623 19.4715 11.8683 19.2261C12.1137 18.9808 12.3083 18.6895 12.4411 18.3689C12.5739 18.0484 12.6422 17.7048 12.6422 17.3578V15.625H7.35782V17.3578Z" fill="#243342"/>
<path d="M12.6422 14.9828C12.6386 14.5625 12.7235 14.1462 12.8915 13.761C13.0595 13.3757 13.3067 13.0302 13.6172 12.7469C14.4372 12.0144 15.0156 11.0504 15.276 9.98217C15.5363 8.91395 15.4663 7.79187 15.0752 6.76429C14.6841 5.7367 13.9904 4.85201 13.0857 4.22718C12.181 3.60234 11.108 3.2668 10.0085 3.2649C8.90903 3.263 7.83486 3.59485 6.92803 4.21656C6.02119 4.83827 5.3244 5.72056 4.92978 6.74679C4.53516 7.77302 4.4613 8.89486 4.71795 9.96397C4.97461 11.0331 5.54969 11.9991 6.36718 12.7344C6.68056 13.0189 6.93067 13.366 7.10132 13.7534C7.27197 14.1407 7.35935 14.5595 7.3578 14.9828V15H12.6422V14.9828Z" fill="#243342"/>
</svg>
