<svg width="40" height="40" viewBox="0 0 40 40" fill="none" xmlns="http://www.w3.org/2000/svg">
<rect width="40" height="40" rx="10" fill="#FFD700"/>
<path d="M13.6 18.1953H11.1797V19.4453H13.6V18.1953Z" fill="#243342"/>
<path d="M28.8203 18.1953H26.4V19.4453H28.8203V18.1953Z" fill="#243342"/>
<path d="M14.146 12.0812L13.2621 12.9651L15.0243 14.7273L15.9082 13.8434L14.146 12.0812Z" fill="#243342"/>
<path d="M20.625 10H19.375V12.4203H20.625V10Z" fill="#243342"/>
<path d="M25.8539 12.0825L24.0917 13.8447L24.9756 14.7286L26.7378 12.9664L25.8539 12.0825Z" fill="#243342"/>
<path d="M15.0247 22.9109L13.2625 24.6731L14.1464 25.557L15.9086 23.7947L15.0247 22.9109Z" fill="#243342"/>
<path d="M24.976 22.912L24.0921 23.7959L25.8543 25.5581L26.7382 24.6743L24.976 22.912Z" fill="#243342"/>
<path d="M17.3578 27.3578C17.3578 27.7048 17.4262 28.0484 17.5589 28.3689C17.6917 28.6895 17.8863 28.9808 18.1317 29.2261C18.377 29.4715 18.6683 29.6661 18.9889 29.7989C19.3094 29.9317 19.653 30 20 30C20.347 30 20.6906 29.9317 21.0111 29.7989C21.3317 29.6661 21.623 29.4715 21.8683 29.2261C22.1137 28.9808 22.3083 28.6895 22.4411 28.3689C22.5739 28.0484 22.6422 27.7048 22.6422 27.3578V25.625H17.3578V27.3578Z" fill="#243342"/>
<path d="M22.6422 24.9828C22.6386 24.5625 22.7235 24.1462 22.8915 23.761C23.0595 23.3757 23.3067 23.0302 23.6172 22.7469C24.4372 22.0144 25.0156 21.0504 25.276 19.9822C25.5363 18.9139 25.4663 17.7919 25.0752 16.7643C24.6841 15.7367 23.9904 14.852 23.0857 14.2272C22.181 13.6023 21.108 13.2668 20.0085 13.2649C18.909 13.263 17.8349 13.5948 16.928 14.2166C16.0212 14.8383 15.3244 15.7206 14.9298 16.7468C14.5352 17.773 14.4613 18.8949 14.718 19.964C14.9746 21.0331 15.5497 21.9991 16.3672 22.7344C16.6806 23.0189 16.9307 23.366 17.1013 23.7534C17.272 24.1407 17.3594 24.5595 17.3578 24.9828V25H22.6422V24.9828Z" fill="#243342"/>
</svg>
