<svg width="40" height="40" viewBox="0 0 40 40" fill="none" xmlns="http://www.w3.org/2000/svg">
<rect width="40" height="40" rx="10" fill="#FFD700"/>
<g clip-path="url(#clip0_2013_185)">
<path d="M15.3828 29.9961H12.7148C12.3242 29.9961 12.0078 29.6758 12.0078 29.2891V23.8281C12.0078 23.4375 12.3281 23.1211 12.7148 23.1211H15.3828C15.7734 23.1211 16.0898 23.4414 16.0898 23.8281V29.2891C16.0937 29.6797 15.7734 29.9961 15.3828 29.9961Z" fill="#243342"/>
<path d="M21.207 29.9961H18.793C18.3359 29.9961 17.957 29.6211 17.957 29.1602V21.2812C17.957 20.8242 18.332 20.4453 18.793 20.4453H21.207C21.6641 20.4453 22.043 20.8203 22.043 21.2812V29.1602C22.043 29.6211 21.668 29.9961 21.207 29.9961Z" fill="#243342"/>
<path d="M27.0508 29.9961H24.8516C24.332 29.9961 23.9102 29.5703 23.9102 29.0547V18.7617C23.9102 18.2422 24.3359 17.8203 24.8516 17.8203H27.0508C27.5703 17.8203 27.9922 18.2461 27.9922 18.7617V29.0547C27.9922 29.5742 27.5703 29.9961 27.0508 29.9961Z" fill="#243342"/>
<path d="M27.3867 10.0001C26.5273 10.0353 25.8594 10.7618 25.8945 11.6251L21.9258 15.5274L18.543 12.5665L12.3516 18.7774C11.5547 18.879 10.957 19.5665 10.9883 20.3829C11.0234 21.2423 11.7539 21.9103 12.6133 21.8751C13.4727 21.8399 14.1406 21.1095 14.1055 20.2501C14.1016 20.1798 14.0859 20.1134 14.0742 20.0431L18.7344 15.5704L22.0039 18.4337L27.4219 13.1134C27.4531 13.1134 27.4844 13.1212 27.5156 13.1173C28.375 13.0821 29.043 12.3517 29.0078 11.4923C28.9727 10.6329 28.2461 9.96495 27.3867 10.0001Z" fill="#243342"/>
</g>
<defs>
<clipPath id="clip0_2013_185">
<rect width="20" height="20" fill="white" transform="translate(10 10)"/>
</clipPath>
</defs>
</svg>
