<svg width="20" height="20" viewBox="0 0 20 20" fill="none" xmlns="http://www.w3.org/2000/svg">
<g clip-path="url(#clip0_2013_186)">
<path d="M5.38281 19.9961H2.71484C2.32422 19.9961 2.00781 19.6758 2.00781 19.2891V13.8281C2.00781 13.4375 2.32812 13.1211 2.71484 13.1211H5.38281C5.77344 13.1211 6.08984 13.4414 6.08984 13.8281V19.2891C6.09375 19.6797 5.77344 19.9961 5.38281 19.9961Z" fill="#243342"/>
<path d="M11.207 19.9961H8.79297C8.33594 19.9961 7.95703 19.6211 7.95703 19.1602V11.2812C7.95703 10.8242 8.33203 10.4453 8.79297 10.4453H11.207C11.6641 10.4453 12.043 10.8203 12.043 11.2812V19.1602C12.043 19.6211 11.668 19.9961 11.207 19.9961Z" fill="#243342"/>
<path d="M17.0508 19.9961H14.8516C14.332 19.9961 13.9102 19.5703 13.9102 19.0547V8.76172C13.9102 8.24219 14.3359 7.82031 14.8516 7.82031H17.0508C17.5703 7.82031 17.9922 8.24609 17.9922 8.76172V19.0547C17.9922 19.5742 17.5703 19.9961 17.0508 19.9961Z" fill="#243342"/>
<path d="M17.3867 0.000105763C16.5273 0.035262 15.8594 0.761824 15.8945 1.62511L11.9258 5.52745L8.54296 2.56651L2.35156 8.77745C1.55468 8.87901 0.957028 9.56651 0.988278 10.3829C1.02343 11.2423 1.7539 11.9103 2.61328 11.8751C3.47265 11.8399 4.14062 11.1095 4.10547 10.2501C4.10156 10.1798 4.08593 10.1134 4.07422 10.0431L8.73437 5.57042L12.0039 8.4337L17.4219 3.11339C17.4531 3.11339 17.4844 3.1212 17.5156 3.11729C18.375 3.08214 19.043 2.35167 19.0078 1.49229C18.9727 0.632918 18.2461 -0.0350505 17.3867 0.000105763Z" fill="#243342"/>
</g>
<defs>
<clipPath id="clip0_2013_186">
<rect width="20" height="20" fill="white"/>
</clipPath>
</defs>
</svg>
