<svg width="40" height="40" viewBox="0 0 40 40" fill="none" xmlns="http://www.w3.org/2000/svg">
<rect width="40" height="40" rx="10" fill="#FFD700"/>
<g clip-path="url(#clip0_2013_197)">
<path d="M20 15C21.3806 15 22.5 13.8806 22.5 12.5C22.5 11.1194 21.3806 10 20 10C18.6194 10 17.5 11.1194 17.5 12.5C17.5 13.8806 18.6194 15 20 15ZM25 18.7869C25 18.0131 25 17.5 25 17.5C25 17.5 25 16.25 23.75 16.25C23.125 16.25 16.25 16.25 16.25 16.25C16.25 16.25 15 16.25 15 17.5V26.25C15 27.5 16.25 27.5 16.25 27.5V30H23.75V29.9631C23.9556 29.9862 24.1631 30 24.375 30C27.4819 29.9987 29.9987 27.4819 30 24.375C29.9987 21.4788 27.8119 19.0975 25 18.7869ZM24.375 28.6769C21.9994 28.6712 20.0775 26.7494 20.0725 24.375C20.0775 21.9994 21.9994 20.0775 24.375 20.0719C26.7494 20.0775 28.6712 21.9994 28.6769 24.375C28.6712 26.7494 26.7494 28.6712 24.375 28.6769Z" fill="#243342"/>
<path d="M27.5 25V23.7494H26.4606C26.4212 23.6169 26.37 23.4912 26.3075 23.3706L27.0494 22.6287L26.1644 21.7444L25.4362 22.4731C25.2987 22.3963 25.1537 22.335 25.0006 22.2894V21.25H23.7506V22.2888C23.6075 22.3313 23.4719 22.3875 23.3431 22.4575L22.63 21.745L21.7456 22.6294L22.4581 23.3419C22.3881 23.4713 22.3319 23.6069 22.2888 23.75H21.25V25H22.2888C22.3344 25.1538 22.3963 25.2994 22.4731 25.4362L21.745 26.1631L22.6281 27.0481L23.3706 26.3063C23.4906 26.3694 23.6169 26.42 23.7487 26.4594V27.5H25V26.4594C25.1431 26.4169 25.2781 26.3606 25.4069 26.2906L26.1644 27.0481L27.0481 26.1631L26.2906 25.4069C26.36 25.2781 26.4162 25.1425 26.4594 25H27.5ZM24.3744 25.3119C23.8563 25.3106 23.4381 24.8925 23.4362 24.3744C23.4381 23.8563 23.8563 23.4381 24.3744 23.4362C24.8925 23.4381 25.3106 23.8563 25.3119 24.3744C25.3106 24.8925 24.8925 25.3106 24.3744 25.3119Z" fill="#243342"/>
</g>
<defs>
<clipPath id="clip0_2013_197">
<rect width="20" height="20" fill="white" transform="translate(10 10)"/>
</clipPath>
</defs>
</svg>
