<svg width="40" height="40" viewBox="0 0 40 40" fill="none" xmlns="http://www.w3.org/2000/svg">
<rect width="40" height="40" rx="10" fill="#FFD700"/>
<path d="M30 21.875V25.625C30 26.6605 29.2538 27.5 28.3333 27.5H11.6667C10.7462 27.5 10 26.6605 10 25.625V21.875C10 20.8395 10.7462 20 11.6667 20H28.3333C29.2538 20 30 20.8395 30 21.875ZM28.3333 18.75C28.7002 18.7496 29.0635 18.8315 29.402 18.9908L26.0503 13.3349C25.8981 13.0781 25.6919 12.8675 25.45 12.7219C25.2081 12.5762 24.938 12.5 24.6636 12.5H15.3364C15.062 12.5 14.7919 12.5762 14.55 12.7219C14.3081 12.8675 14.1019 13.0781 13.9497 13.3349L10.598 18.9908C10.9365 18.8315 11.2998 18.7496 11.6667 18.75H28.3333ZM26.6667 22.5C26.053 22.5 25.5556 23.0596 25.5556 23.75C25.5556 24.4404 26.053 25 26.6667 25C27.2803 25 27.7778 24.4404 27.7778 23.75C27.7778 23.0596 27.2803 22.5 26.6667 22.5ZM23.3333 22.5C22.7197 22.5 22.2222 23.0596 22.2222 23.75C22.2222 24.4404 22.7197 25 23.3333 25C23.947 25 24.4444 24.4404 24.4444 23.75C24.4444 23.0596 23.947 22.5 23.3333 22.5Z" fill="#243342"/>
</svg>
