<svg width="20" height="20" viewBox="0 0 20 20" fill="none" xmlns="http://www.w3.org/2000/svg">
<g clip-path="url(#clip0_2013_198)">
<path d="M10 5C11.3806 5 12.5 3.88063 12.5 2.5C12.5 1.11937 11.3806 0 10 0C8.61937 0 7.5 1.11937 7.5 2.5C7.5 3.88063 8.61937 5 10 5ZM15 8.78687C15 8.01313 15 7.5 15 7.5C15 7.5 15 6.25 13.75 6.25C13.125 6.25 6.25 6.25 6.25 6.25C6.25 6.25 5 6.25 5 7.5V16.25C5 17.5 6.25 17.5 6.25 17.5V20H13.75V19.9631C13.9556 19.9862 14.1631 20 14.375 20C17.4819 19.9988 19.9987 17.4819 20 14.375C19.9987 11.4788 17.8119 9.0975 15 8.78687ZM14.375 18.6769C11.9994 18.6712 10.0775 16.7494 10.0725 14.375C10.0775 11.9994 11.9994 10.0775 14.375 10.0719C16.7494 10.0775 18.6712 11.9994 18.6769 14.375C18.6712 16.7494 16.7494 18.6712 14.375 18.6769Z" fill="#243342"/>
<path d="M17.5 15V13.7494H16.4606C16.4212 13.6169 16.37 13.4912 16.3075 13.3706L17.0494 12.6287L16.1644 11.7444L15.4362 12.4731C15.2987 12.3963 15.1537 12.335 15.0006 12.2894V11.25H13.7506V12.2888C13.6075 12.3313 13.4719 12.3875 13.3431 12.4575L12.63 11.745L11.7456 12.6294L12.4581 13.3419C12.3881 13.4713 12.3319 13.6069 12.2888 13.75H11.25V15H12.2888C12.3344 15.1537 12.3963 15.2994 12.4731 15.4362L11.745 16.1631L12.6281 17.0481L13.3706 16.3063C13.4906 16.3694 13.6169 16.42 13.7487 16.4594V17.5H15V16.4594C15.1431 16.4169 15.2781 16.3606 15.4069 16.2906L16.1644 17.0481L17.0481 16.1631L16.2906 15.4069C16.36 15.2781 16.4162 15.1425 16.4594 15H17.5ZM14.3744 15.3119C13.8563 15.3106 13.4381 14.8925 13.4362 14.3744C13.4381 13.8563 13.8563 13.4381 14.3744 13.4362C14.8925 13.4381 15.3106 13.8563 15.3119 14.3744C15.3106 14.8925 14.8925 15.3106 14.3744 15.3119Z" fill="#243342"/>
</g>
<defs>
<clipPath id="clip0_2013_198">
<rect width="20" height="20" fill="white"/>
</clipPath>
</defs>
</svg>
