<svg width="50" height="74" viewBox="0 0 50 74" fill="none" xmlns="http://www.w3.org/2000/svg">
<path d="M28.2297 14.7297C28.3914 14.7191 28.5535 14.7443 28.7043 14.8034C28.8551 14.8625 28.9908 14.9541 29.1016 15.0716C29.2125 15.1891 29.2957 15.3296 29.3453 15.4828C29.395 15.6361 29.4098 15.7985 29.3887 15.9581L29.3998 16.9702C29.4035 19.1448 29.3924 21.3157 29.4072 23.4866C29.4219 25.0781 29.7025 25.3825 31.2527 25.5768C35.121 25.9303 39.0162 25.8738 42.8724 25.4081C44.8704 25.2704 46.8319 24.807 48.6785 24.0367C49.1336 23.8977 49.5182 23.5916 49.7541 23.1808C49.99 22.77 50.0594 22.2853 49.9483 21.8254C49.2137 16.7493 46.9286 12.0195 43.4017 8.27494C39.8748 4.53035 35.276 1.95142 30.2266 0.886511C25.7435 -0.0816745 21.0765 0.225908 16.7614 1.77394C12.9724 3.08475 9.56015 5.28939 6.8175 8.19863C2.59545 12.3704 0.153812 17.9981 0 23.912C0.0799281 31.0269 2.02101 37.9988 5.63265 44.1432C6.0737 45.0416 6.77969 45.7853 7.65665 46.2753C8.53362 46.7653 9.53999 46.9783 10.5418 46.8861C12.9521 46.8274 15.3661 46.8714 17.7764 46.8714V46.8604H25.4687C26.3915 46.8604 27.1187 47.0805 27.1113 48.2246C27.0928 50.8869 27.1113 53.5418 27.1002 56.2041C27.0928 57.0109 26.864 57.7883 25.8969 57.7956C24.9225 57.803 24.6899 57.0292 24.6788 56.2188C24.6604 54.9463 24.6788 53.6738 24.6788 52.4014C24.6788 50.7475 24.4094 50.3588 22.7484 50.0545C19.8802 49.5901 16.9573 49.5654 14.0816 49.9811C13.0651 50.0631 12.0683 50.3057 11.1287 50.6999C10.3462 51.0666 10.0362 51.5983 10.4163 52.4124C10.8113 53.2595 11.1767 54.1249 11.6455 54.9353C15.4366 61.274 19.6618 67.3463 24.2913 73.1093C24.8597 73.839 25.2989 73.8537 25.8821 73.1459C27.1703 71.5838 28.5213 70.0693 29.7947 68.4961C34.7889 62.4877 39.2091 56.0302 42.9979 49.2074C45.5272 44.7701 47.3852 39.9871 48.5124 35.0122C48.7624 34.375 48.8599 33.6888 48.7972 33.0078C48.7344 32.3268 48.5132 31.6696 48.1509 31.0881C47.7886 30.5067 47.2953 30.0168 46.7097 29.6573C46.1242 29.2978 45.4625 29.0784 44.777 29.0165C42.754 28.5717 40.6842 28.3722 38.6128 28.4225C35.2576 28.4005 31.9024 28.4115 28.5471 28.4151C27.6428 28.4151 26.971 28.1584 26.971 27.1023C26.971 23.3986 26.9636 19.6875 26.9784 15.9801C26.9784 15.188 27.3623 14.6967 28.2297 14.7297Z" fill="#576F75"/>
</svg>
