<svg width="100" height="14" viewBox="0 0 100 14" fill="none" xmlns="http://www.w3.org/2000/svg">
<path d="M21.4375 4.12913H28.25C28.9861 4.12466 29.6942 4.4111 30.2202 4.92613C30.7461 5.44116 31.0474 6.14309 31.0583 6.87913V13.1666H20.8708C20.4214 13.1689 19.9894 12.993 19.6692 12.6776C19.3491 12.3621 19.1669 11.9327 19.1625 11.4833V9.29997C19.168 8.88149 19.3389 8.4822 19.638 8.18941C19.937 7.89661 20.3398 7.73413 20.7583 7.73747H26.4L25.8 9.01247H21.6417C21.4625 9.01247 21.2583 9.15413 21.2583 9.34997V11.0666C21.2583 11.2625 21.4625 11.4083 21.6417 11.4083H28.85V7.2833C28.85 6.48747 28.1458 5.87496 27.3625 5.87496H20.6042L21.4375 4.12913ZM77.3833 0.849967V13.1791H67.4542C67.0054 13.1814 66.574 13.0061 66.254 12.6915C65.934 12.377 65.7513 11.9487 65.7458 11.5V6.87497C65.7579 6.13892 66.0602 5.43743 66.5869 4.92318C67.1137 4.40893 67.8222 4.12354 68.5583 4.12913H74.2125L73.3792 5.88747H69.4292C68.6458 5.88747 67.9417 6.49997 67.9417 7.29163V11.0833C67.9417 11.275 68.1458 11.4166 68.325 11.4166H75.175V0.849967H77.3833ZM42.5 13.1791H44.6958V6.88746C44.6838 6.15215 44.382 5.45129 43.8562 4.93715C43.3304 4.42302 42.6229 4.13714 41.8875 4.14163H37.2167L36.3833 5.89997H41.0125C41.7958 5.89997 42.5 6.51247 42.5 7.30413V13.1791ZM33.3542 0.845799V13.1791H35.55V0.845799H33.3542ZM15.0208 13.1791H17.2167V6.88746C17.2046 6.15215 16.9029 5.45129 16.377 4.93715C15.8512 4.42302 15.1437 4.13714 14.4083 4.14163H0V13.1791H2.19167V6.22497C2.19167 6.02913 2.4 5.88747 2.57917 5.88747H7.12083C7.3 5.88747 7.50417 6.02913 7.50417 6.22497V13.1791H9.7V6.22497C9.7 6.02913 9.90417 5.88747 10.0833 5.88747H13.5333C14.3167 5.88747 15.0208 6.49997 15.0208 7.29163V13.1791ZM88.8542 4.12913H83.3333C82.5972 4.12466 81.8891 4.4111 81.3632 4.92613C80.8372 5.44116 80.536 6.14309 80.525 6.87913V13.1666H82.7208V7.29163C82.7208 6.49997 83.425 5.88747 84.2083 5.88747H88.0167L88.8542 4.12913ZM60.7167 4.12913C61.4535 4.12355 62.1627 4.40951 62.6895 4.92466C63.2164 5.43981 63.5182 6.14236 63.5292 6.87913V13.1666H61.3333V7.29163C61.3333 6.49997 60.625 5.88747 59.8458 5.88747H54.5625V13.1791H52.3667V4.14163C55.1375 4.14163 57.9208 4.12913 60.7167 4.12913ZM47.425 4.69997L49.6208 3.42497V13.1666H47.4292L47.425 4.69997ZM49.6333 2.16247V0.820801H47.4417V3.42497L49.6333 2.16247ZM90.3917 4.12913H97.1917C97.9278 4.12466 98.6359 4.4111 99.1618 4.92613C99.6878 5.44116 99.989 6.14309 100 6.87913V13.1666H89.8125C89.3631 13.1689 88.931 12.993 88.6109 12.6776C88.2908 12.3621 88.1086 11.9327 88.1042 11.4833V9.29997C88.1097 8.88149 88.2806 8.4822 88.5797 8.18941C88.8787 7.89661 89.2815 7.73413 89.7 7.73747H95.3417L94.7417 9.01247H90.5833C90.4042 9.01247 90.2 9.15413 90.2 9.34997V11.0666C90.2 11.2625 90.4042 11.4083 90.5833 11.4083H97.7917V7.2833C97.7917 6.48747 97.0875 5.87496 96.3042 5.87496H89.5458L90.3917 4.12913Z" fill="#576F75"/>
</svg>
