<svg width="100" height="24" viewBox="0 0 100 24" fill="none" xmlns="http://www.w3.org/2000/svg">
<path d="M11.875 15.2748C6.82917 15.2248 3.575 12.8331 3.575 9.17064C3.575 5.50814 6.82917 3.12064 11.8667 3.06647C16.9083 3.12064 20.1667 5.51647 20.1667 9.17064C20.1667 12.8248 16.9083 15.2248 11.875 15.2748ZM12.0167 0.116469H11.7125C4.81667 0.228969 0 3.9498 0 9.16647C0 14.3831 4.81667 18.1123 11.7125 18.2248H12.0167C18.9125 18.1123 23.7292 14.3873 23.7292 9.16647C23.7292 3.94563 18.9125 0.228969 12.0167 0.116469ZM88.1417 15.2748C83.1 15.2248 79.8417 12.829 79.8417 9.17064C79.8417 5.5123 83.1 3.12064 88.1375 3.06647C93.1792 3.12064 96.4333 5.51647 96.4333 9.17064C96.4333 12.8248 93.1792 15.2248 88.1417 15.2748ZM88.2875 0.116469H87.9833C81.0875 0.228969 76.2708 3.9498 76.2708 9.17064C76.2708 14.3915 81.0875 18.1165 87.9792 18.229H88.2875C95.1833 18.1165 100 14.3915 100 9.16647C100 3.94147 95.1833 0.228969 88.2875 0.116469ZM62.7625 15.2748C57.7208 15.2248 54.4708 12.829 54.4708 9.17064C54.4708 5.5123 57.7208 3.12064 62.7625 3.06647C67.8042 3.12064 71.0583 5.51647 71.0583 9.17064C71.0583 12.8248 67.8042 15.2248 62.7667 15.2748H62.7625ZM62.9125 0.116469H62.6083C59.3208 0.170636 56.5083 1.04147 54.4625 2.50814V0.966471H50.8917V23.8831H54.4625V15.8373C56.5042 17.2998 59.3208 18.1706 62.6042 18.229H62.9125C69.8083 18.1165 74.6208 14.3915 74.6208 9.17064C74.6208 3.9498 69.8083 0.228969 62.9125 0.116469ZM37.3125 15.2748C32.2708 15.2248 29.0208 12.829 29.0208 9.17064C29.0208 5.5123 32.2708 3.12064 37.3125 3.06647C42.3542 3.12064 45.6083 5.51647 45.6083 9.17064C45.6083 12.8248 42.3542 15.2248 37.3167 15.2748H37.3125ZM37.4667 0.116469H37.1667C33.8792 0.170636 31.0667 1.04147 29.0208 2.50814V0.966471H25.4542V23.8831H29.0208V15.8373C31.0667 17.2998 33.8792 18.1706 37.1667 18.229C37.2681 18.23 37.3694 18.23 37.4708 18.229C44.3667 18.1165 49.1833 14.3915 49.1833 9.17064C49.1833 3.9498 44.3667 0.228969 37.475 0.116469H37.4667Z" fill="#576F75"/>
</svg>
