<svg width="100" height="24" viewBox="0 0 100 24" fill="none" xmlns="http://www.w3.org/2000/svg">
<path d="M69.125 0.950065V23.0501H72.4417V0.950065H69.125ZM33.7208 0.575068C27.2625 0.575068 22.2542 5.2709 22.2542 12.0001C22.2542 19.0292 27.2625 23.4251 33.7208 23.4251C40.1792 23.4251 45.1958 19.0292 45.1833 12.0001C45.1956 10.4931 44.9072 8.99886 44.3351 7.60471C43.7629 6.21056 42.9185 4.94452 41.8511 3.88066C40.7838 2.8168 39.515 1.9765 38.1189 1.40891C36.7229 0.841318 35.2277 0.557843 33.7208 0.575068ZM41.875 12.0001C41.875 16.9792 38.225 20.2792 33.7208 20.2792C29.2125 20.2792 25.5625 16.9792 25.5625 12.0001C25.5625 7.1084 29.2125 3.7209 33.7208 3.7209C38.2208 3.7209 41.875 7.1084 41.875 12.0001ZM0 0.233398V23.0501H3.38333V7.9709L20.9583 23.7626V19.0334L0 0.233398ZM47.675 12.0001L59.975 23.0501H64.9083L52.5917 12.0001L64.9083 0.950065H59.975L47.675 12.0001ZM100 23.0501H96.3542L93.6875 18.1542H81.6125L78.9458 23.0501H75.3L79.7167 14.8917H91.9542L85.85 3.5584L87.65 0.233398L100 23.0501Z" fill="#576F75"/>
</svg>
