<svg width="100" height="14" viewBox="0 0 100 14" fill="none" xmlns="http://www.w3.org/2000/svg">
<path d="M0 13.6668L1.85417 10.8418H12.5958C13.2042 10.8418 13.6042 10.4668 13.6042 9.8835V8.25017H4.36667C1.61667 8.25017 0.395833 7.09183 0.395833 4.521V3.41266C0.395833 1.496 1.5875 0.337664 3.46667 0.337664H3.675V4.471C3.675 5.05433 4.075 5.42933 4.68333 5.42933H13.6292C15.6708 5.42933 16.8833 6.58766 16.8833 8.47933V9.93766C16.8833 12.4377 15.5917 13.671 12.9167 13.671L0 13.6668ZM64.3875 10.7918H72.6958C74.0708 10.7918 74.9458 9.98766 74.9458 8.72516V5.27517C74.9458 4.01267 74.0708 3.2085 72.6958 3.2085H64.3875V10.7918ZM61.0542 13.6668V0.333496H72.7792C76.2708 0.333496 78.2792 2.25016 78.2792 5.42516V8.57517C78.2792 11.7502 76.2708 13.6668 72.7792 13.6668H61.0542ZM44.8917 10.7918H51.9083C53.175 10.7918 53.9958 10.0377 53.9958 8.85433V5.146C53.9958 3.96267 53.175 3.2085 51.9083 3.2085H44.8917C43.625 3.2085 42.8042 3.96267 42.8042 5.146V8.85433C42.8042 10.0377 43.625 10.7918 44.8917 10.7918ZM51.9875 13.6668H44.8125C41.425 13.6668 39.4667 11.8002 39.4667 8.70016V5.30016C39.4667 2.20016 41.425 0.333496 44.8125 0.333496H51.9875C55.375 0.333496 57.3333 2.20016 57.3333 5.30016V8.70016C57.3333 11.8002 55.375 13.6668 51.9875 13.6668ZM79.65 13.6668L87.5083 0.333496H92.1417L100 13.6668H96.1875L94.8375 11.3752H88.1417L86.3458 8.65016L83.3792 13.6668H79.65ZM86.425 8.50016H93.1458L89.7833 2.82933L86.425 8.50016ZM6.95833 3.10433L5.05417 0.333496H16.5667L14.7125 3.10433H6.95833ZM20.5542 13.6668V0.333496H23.8875V5.52516H28.3083L34.05 0.333496H38.4708L31.1667 6.9585L38.6042 13.6668H33.9167L28.1708 8.40017H23.8875V13.6668H20.5542Z" fill="#576F75"/>
</svg>
