<svg width="100" height="40" viewBox="0 0 100 40" fill="none" xmlns="http://www.w3.org/2000/svg">
<path d="M85.0833 0.604004V38.854H91.9625V0.604004H85.0833ZM0 1.14567V8.38317H7.2375V1.1415L0 1.14567ZM40.75 2.61234V27.8332C40.75 29.9707 40.9333 31.7707 41.2917 33.2165C41.6542 34.6332 42.2708 35.7915 43.125 36.6665C43.9708 37.5415 45.1042 38.1623 46.4708 38.5457C47.8625 38.9332 49.6125 39.1123 51.7 39.1123H52.6V32.7248C51.6 32.7248 50.7458 32.6748 50.1292 32.5707C49.5236 32.5133 48.9531 32.2603 48.5042 31.8498C48.1091 31.4121 47.8576 30.8639 47.7833 30.279C47.6681 29.4425 47.6165 28.5984 47.6292 27.754V18.6623H52.6V12.7623H47.6292V2.61234H40.75ZM26.1458 12.2457C24.4958 12.2457 22.9792 12.579 21.6375 13.2498C20.275 13.9207 19.1375 14.8498 18.2125 16.0332L17.85 16.5207V12.7623H11.075V38.829H17.9042V25.4373C17.9792 22.9873 18.5708 21.1873 19.7083 20.0248C20.9167 18.7873 22.3833 18.1707 24.0583 18.1707C26.0417 18.1707 27.5625 18.7915 28.5667 19.9748C29.5458 21.1582 30.0625 22.8332 30.0625 24.9748V38.8248H36.9917V24.0415C37.0167 20.3332 36.0375 17.3957 34.1333 15.3332C32.225 13.2707 29.55 12.2415 26.1458 12.2415V12.2457ZM68.0833 12.2707C66.3013 12.2636 64.5353 12.6081 62.8865 13.2844C61.2378 13.9608 59.7387 14.9558 58.475 16.2123C57.2667 17.4207 56.2875 18.8665 55.5917 20.5165C54.8739 22.1917 54.5134 23.9983 54.5333 25.8207C54.5333 27.704 54.8667 29.479 55.5375 31.129C56.2083 32.7748 57.1625 34.2207 58.3458 35.429C59.5292 36.6373 61 37.6207 62.7 38.3165C64.4 39.0373 66.2833 39.3998 68.2917 39.3998C74.1125 39.3998 77.7167 36.7457 79.8833 34.2748L74.9375 30.5082C73.9042 31.7457 71.4333 33.4207 68.3417 33.4207C66.4083 33.4207 64.8125 32.9832 63.6 32.0832C62.3866 31.1889 61.5149 29.907 61.1292 28.4498L61.05 28.2165H81.5292V25.7707C81.5292 23.8915 81.1958 22.1373 80.55 20.4915C79.901 18.9014 78.9677 17.4429 77.7958 16.1873C76.593 14.9436 75.146 13.962 73.5458 13.304C71.8129 12.5962 69.9551 12.2448 68.0833 12.2707ZM0.179167 12.7623V38.829H7.05833V12.7623H0.179167ZM68.0042 18.1207C72.7208 18.1207 74.9375 21.4415 74.9375 23.3498L61.1042 23.3748C61.1042 21.4665 63.2917 18.1457 68.0042 18.1207ZM97.475 34.0123C96.8053 34.0123 96.1631 34.2784 95.6896 34.7519C95.216 35.2254 94.95 35.8677 94.95 36.5373C94.95 37.207 95.216 37.8493 95.6896 38.3228C96.1631 38.7963 96.8053 39.0623 97.475 39.0623C98.1447 39.0623 98.7869 38.7963 99.2604 38.3228C99.734 37.8493 100 37.207 100 36.5373C100 35.8677 99.734 35.2254 99.2604 34.7519C98.7869 34.2784 98.1447 34.0123 97.475 34.0123ZM97.4417 34.4498C97.4444 34.4498 97.4472 34.4498 97.45 34.4498C97.7239 34.4498 97.9952 34.5039 98.2482 34.6088C98.5012 34.7138 98.7311 34.8676 98.9246 35.0615C99.1181 35.2554 99.2715 35.4856 99.3759 35.7388C99.4804 35.992 99.5339 36.2634 99.5333 36.5373C99.5333 36.8109 99.4794 37.0818 99.3747 37.3346C99.27 37.5874 99.1166 37.817 98.9231 38.0105C98.7297 38.2039 98.5 38.3574 98.2473 38.4621C97.9945 38.5668 97.7236 38.6207 97.45 38.6207C96.8975 38.6207 96.3676 38.4012 95.9769 38.0105C95.5862 37.6198 95.3667 37.0899 95.3667 36.5373C95.3667 35.9862 95.585 35.4576 95.9739 35.0671C96.3628 34.6767 96.8906 34.452 97.4417 34.4498ZM96.4708 35.0957V38.0082H97.0125V36.8207H97.4L98.1208 38.0082H98.6875L97.9375 36.7707C98.1237 36.7531 98.2978 36.6705 98.4292 36.5373C98.5542 36.4123 98.6375 36.229 98.6375 35.9707C98.6375 35.6873 98.5542 35.4832 98.375 35.329C98.2208 35.1707 97.9375 35.0957 97.6042 35.0957H96.4708ZM97.0125 35.5082H97.6542C97.7333 35.5082 97.8083 35.5332 97.8875 35.5582C97.9538 35.5795 98.0091 35.6258 98.0417 35.6873C98.0958 35.7415 98.0917 35.8165 98.0917 35.9207C98.0928 35.9999 98.0757 36.0783 98.0417 36.1498C97.9969 36.2003 97.945 36.2438 97.8875 36.279C97.8083 36.304 97.7333 36.3332 97.6542 36.3332H97.0125V35.5082Z" fill="#576F75"/>
</svg>
