<svg width="100" height="34" viewBox="0 0 100 34" fill="none" xmlns="http://www.w3.org/2000/svg">
<path d="M25.0038 1.0376C27.4815 1.0376 29.4903 3.04575 29.4903 5.52371C29.4903 8.00199 27.4815 10.0101 25.0038 10.0101H4.48658C2.00862 10.0101 -1.52588e-05 8.00199 -1.52588e-05 5.52371C-1.52588e-05 3.04575 2.00862 1.0376 4.48642 1.0376H25.0038Z" fill="#576F75"/>
<path d="M22.9416 12.7934C25.4197 12.7934 27.4283 14.8019 27.4283 17.2798C27.4283 19.7578 25.4197 21.7663 22.9416 21.7663H11.2639C10.2679 21.7698 9.45269 22.5577 9.41456 23.5437V29.3911C9.41456 31.8687 7.40593 33.8772 4.92861 33.8772C2.45065 33.8772 0.442017 31.8687 0.442017 29.3911V19.4398C0.442017 15.7693 3.41757 12.7932 7.0883 12.7932L22.9416 12.7934ZM31.5277 4.57823C31.5277 2.1006 33.5363 0.0917969 36.0141 0.0917969C38.4922 0.0917969 40.5005 2.1006 40.5005 4.57823V29.4224C40.5005 31.9004 38.4924 33.9089 36.0141 33.9089C33.5365 33.9089 31.5277 31.9002 31.5277 29.4224V4.57823ZM86.7457 25.0103L88.5487 25.0058C88.7256 25.0056 88.8952 24.9353 89.0203 24.8101C89.1454 24.685 89.2158 24.5154 89.2159 24.3384C89.2186 24.2508 89.2026 24.1636 89.1687 24.0827L82.4648 12.8173L71.9917 30.9519C71.1826 32.3542 69.7299 33.1539 68.2222 33.1942C68.1773 33.2005 68.1319 33.2037 68.0865 33.2037H51.0423C47.3714 33.2037 44.3957 30.2278 44.3957 26.5572V4.57855C44.3957 2.10076 46.4045 0.0919583 48.8821 0.0919583C51.3596 0.0919583 53.3685 2.10076 53.3685 4.57839V22.381C53.3718 23.3775 54.1595 24.1932 55.1461 24.2303H64.6806C64.9258 24.1549 65.6758 23.9 65.9042 23.545L77.8799 2.81403C78.7887 1.25371 80.4791 0.203271 82.4139 0.203271C84.3496 0.203271 86.0403 1.25533 86.9451 2.81888L98.6146 22.4112C99.5149 23.5817 100.002 25.0174 99.9998 26.4941C99.9998 30.1997 96.9958 33.2034 93.2908 33.2034H79.6882C77.4248 33.2034 75.5916 31.369 75.5916 29.1063C75.5916 26.8443 77.425 25.0103 79.6882 25.0103H86.7457Z" fill="#576F75"/>
</svg>
