<svg width="100" height="24" viewBox="0 0 100 24" fill="none" xmlns="http://www.w3.org/2000/svg">
<path d="M58.0125 21.0626C58.0125 21.2542 58.075 21.3626 58.1833 21.3626C58.2712 21.3507 58.3544 21.3162 58.425 21.2626L89.5917 1.03757C90.1181 0.668848 90.7491 0.478968 91.3917 0.495901H98.2417C99.2917 0.495901 100 1.1959 100 2.2459V15.3251C100 16.9084 99.65 17.8251 98.25 18.6626L89.9417 23.6626C89.859 23.7199 89.7627 23.7544 89.6625 23.7626C89.5625 23.7626 89.4625 23.6834 89.4625 23.3959V8.1334C89.4625 7.95423 89.4125 7.83757 89.2917 7.83757C89.2033 7.84741 89.1195 7.88208 89.05 7.93756L66.275 22.7334C65.7594 23.0843 65.1487 23.269 64.525 23.2626H49.425C48.3667 23.2626 47.6667 22.5626 47.6667 21.5042V2.65423C47.6667 2.51673 47.6042 2.38757 47.4833 2.38757C47.3967 2.39919 47.3147 2.43371 47.2458 2.48757L32.2167 11.5001C32.0667 11.6001 32.025 11.6709 32.025 11.7417C32.025 11.8001 32.0583 11.8626 32.1583 11.9709L42.8958 22.7001C43.0375 22.8417 43.1375 22.9501 43.1375 23.0709C43.1375 23.1709 42.975 23.2501 42.7875 23.2501H33.0833C32.3208 23.2501 31.7333 23.1417 31.3208 22.7292L24.8125 16.2292C24.7879 16.1997 24.7574 16.1755 24.7229 16.1583C24.6885 16.1411 24.6509 16.1312 24.6125 16.1292C24.5417 16.1332 24.473 16.1547 24.4125 16.1917L13.5375 22.7334C13.0175 23.0827 12.4012 23.2605 11.775 23.2417H1.77083C0.7 23.2501 0 22.5417 0 21.4959V8.66257C0 7.07923 0.35 6.16257 1.75833 5.32923L10.125 0.300068C10.1899 0.258829 10.2648 0.2358 10.3417 0.233398C10.475 0.233398 10.5417 0.3584 10.5417 0.650067V17.8334C10.5417 18.0126 10.5833 18.0959 10.7125 18.0959C10.8023 18.0819 10.8878 18.0477 10.9625 17.9959L39.1958 1.00007C39.7432 0.631628 40.3952 0.450365 41.0542 0.4834H56.2542C57.3042 0.4834 58.0125 1.1834 58.0125 2.2334L58.0042 21.0584L58.0125 21.0626Z" fill="#576F75"/>
</svg>
